<?xml version="1.0" encoding="UTF-8"?>
<svg id="Layer_2" data-name="Layer 2" xmlns="http://www.w3.org/2000/svg" viewBox="0 0 185.02 183.69">
  <defs>
    <style>
      .cls-1 {
        fill: #ff4800;
        stroke-width: 0px;
      }
    </style>
  </defs>
  <g id="Layer_1-2" data-name="Layer 1">
    <g>
      <path class="cls-1" d="m151.14,101.47L116.64,17.75C112.25,7.08,101.03,0,88.5,0h-29.63l-16.51,23.49h8.26s2.5-15.84,20.78-15.84c4.86,0,8.31,4.34,6.77,8.55l-10.89,29.72-36.44,99.5-7.2,19.67c-6.23,15.67-16.06,18.6-23.63,18.6h33.64l14.02-38.27,36.44-99.5,9.72-26.53c2.28-6.22,11.92-6.22,14.2,0l30.06,82.08h13.05Z"/>
      <path class="cls-1" d="m185.02,101.89v-10.05c0,17.75-7.65,22.96-21.95,22.96h-39.7v7.65h22.41l15.94,43.52c6.46,16.81-13,17.71-18.73,17.71h42.05l-25.23-61.23h4.66c11.36,0,20.57-9.21,20.57-20.57Z"/>
    </g>
  </g>
</svg>