<?xml version="1.0" encoding="UTF-8"?>
<svg id="Layer_2" data-name="Layer 2" xmlns="http://www.w3.org/2000/svg" viewBox="0 0 180.51 180.5">
  <defs>
    <style>
      .cls-1 {
        fill: #ff4800;
        stroke-width: 0px;
      }
    </style>
  </defs>
  <g id="Layer_1-2" data-name="Layer 1">
    <g>
      <path class="cls-1" d="m160.29,0H15.04L0,22.56h7.52s11.43-18.12,15.69-6.8c2.41,6.4,3.77,24.51,15.82,39.06h0c4.51,9.91-2.08,35.38-2.08,35.38h7.29s3.97-24.55,9.39-23.36c0,0,0,0,0,0,9.11,5.01,21.25,8.26,37.59,8.26,23.37,0,39.63.02,50.83.03,12.93.02,23.41-10.45,23.41-23.38,0,0-1.59,10.58-25.57,10.58h-44.66c-13.15,0-58.48,3.34-67.04-38.05-3.35-16.23,11.82-16.76,25.21-16.76h105.53c14.05,0,21.57,5.12,21.57,22.56v-9.87c0-11.16-9.05-20.21-20.21-20.21Z"/>
      <path class="cls-1" d="m134.66,170.94c-16.82-.5-31.5-1.66-65.82-20.93-33.43-18.78-46.94-1.59-61.32-24.24H0l15.85,23.66c52.05,0,49.7,31.08,107.2,31.08,52.42,0,57.45-22.03,57.45-32.55v-6.93c-.25,17.47-19.24,30.7-45.84,29.92Z"/>
    </g>
  </g>
</svg>