<?xml version="1.0" encoding="UTF-8"?>
<svg id="Layer_2" data-name="Layer 2" xmlns="http://www.w3.org/2000/svg" viewBox="0 0 182.8 182.79">
  <defs>
    <style>
      .cls-1 {
        fill: #ff4800;
        stroke-width: 0px;
      }
    </style>
  </defs>
  <g id="Layer_1-2" data-name="Layer 1">
    <g>
      <path class="cls-1" d="m162.33,0H15.23L0,22.85h7.62s11.58-18.35,15.89-6.88c2.44,6.48,3.81,24.82,16.02,39.55h0c4.56,10.04-2.1,35.83-2.1,35.83h7.38s4.02-24.87,9.51-23.66c0,0,0,0,0,0,9.23,5.07,21.52,8.37,38.07,8.37,23.67,0,40.13.02,51.48.03,13.09.02,23.71-10.58,23.71-23.67,0,0-1.61,10.71-25.89,10.71h-45.23c-13.32,0-59.23,3.38-67.89-38.54-3.4-16.43,11.97-16.98,25.53-16.98h106.87c14.23,0,21.84,5.18,21.84,22.85v-10c0-11.31-9.16-20.47-20.47-20.47Z"/>
      <path class="cls-1" d="m136.37,173.11c-17.03-.5-31.9-1.68-66.65-21.2-33.85-19.01-47.53-1.61-62.1-24.55H0l16.06,23.96c52.71,0,50.33,31.47,108.56,31.47,53.09,0,58.18-22.31,58.18-32.97v-7.01c-.25,17.69-19.48,31.09-46.43,30.3Z"/>
    </g>
  </g>
</svg>