<?xml version="1.0" encoding="UTF-8"?>
<svg id="Layer_2" data-name="Layer 2" xmlns="http://www.w3.org/2000/svg" viewBox="0 0 191.77 183.78">
  <defs>
    <style>
      .cls-1 {
        fill: #ff4800;
        stroke-width: 0px;
      }
    </style>
  </defs>
  <g id="Layer_1-2" data-name="Layer 1">
    <g>
      <path class="cls-1" d="m107.15,114.83c13.63,0,48.37,0,62.67,0,14.3,0,21.95-5.21,21.95-22.96v10.05c0,11.36-9.21,20.57-20.57,20.57h-64.05"/>
      <path class="cls-1" d="m45.92,0v183.72l-42.85.06s26.6-2.58,26.6-28.62V16.23c0-5.38-1.73-8.55-5.74-8.55-8.62,0-17.13,15.84-17.13,15.84H0L13.61.03h24.42l7.89-.03Z"/>
      <path class="cls-1" d="m168.39.03v107.15h-16.25V16.23c0-5.38-1.73-8.55-5.74-8.55-8.62,0-17.13,15.84-17.13,15.84h-6.8L136.07.03h32.32Z"/>
      <path class="cls-1" d="m168.39,122.49v61.23l-42.85.03s26.6-2.55,26.6-28.59v-32.67h16.25Z"/>
    </g>
  </g>
</svg>