<?xml version="1.0" encoding="UTF-8"?>
<svg id="Layer_2" data-name="Layer 2" xmlns="http://www.w3.org/2000/svg" viewBox="0 0 194.79 183.73">
  <defs>
    <style>
      .cls-1 {
        fill: #ff4800;
        stroke-width: 0px;
      }
    </style>
  </defs>
  <g id="Layer_1-2" data-name="Layer 1">
    <path class="cls-1" d="m194.79,143.14c-.08,8.26-3.69,26.58-18.01,35.5-4.65,2.91-10.43,4.81-17.59,5.06-.54.03-1.07.03-1.62.03H36.13V13.37c-.42-3.12-3.33-5.71-7.09-5.71-18.28,0-20.78,15.84-20.78,15.84H0L16.51,0h29.63c.49,0,.98,0,1.46.03.71.03,1.42.09,2.13.16v144.2c0,31.73,25.56,32.88,97.52,32.88,2.99,0,5.79-.15,8.43-.45,7.35-.79,13.35-2.64,18.26-5.08,16.91-8.4,20.7-23.93,20.85-28.61Z"/>
  </g>
</svg>