<?xml version="1.0" encoding="UTF-8"?>
<svg id="Layer_2" data-name="Layer 2" xmlns="http://www.w3.org/2000/svg" viewBox="0 0 201.7 184.71">
  <defs>
    <style>
      .cls-1 {
        fill: #ff4800;
        stroke-width: 0px;
      }
    </style>
  </defs>
  <g id="Layer_1-2" data-name="Layer 1">
    <g>
      <path class="cls-1" d="m168,171.02V.2c-.77-.08-1.55-.14-2.33-.16-.53-.03-1.06-.03-1.6-.03h-32.5l-18.1,23.49h9.06s2.74-15.84,22.79-15.84c4.12,0,7.32,2.59,7.78,5.71v155.64C96.52,169.01,105.84.24,43.18.24h-25.08L0,23.73h9.06s2.74-15.84,22.79-15.84c4.12,0,7.32,2.59,7.78,5.71v88.11h14.91V19.24c30.67,0,23.68,165.47,106.82,165.47,23.74-.61,40.34-22.33,40.34-39.12-3.17,15.92-12.98,27.93-26.76,30.57-3.58.69-6.94-1.81-6.94-5.15Z"/>
      <path class="cls-1" d="m39.62,172.85c-1.15,11.1-18.11,11.1-18.11,11.1h33.03v-68.89h-14.91v57.79Z"/>
    </g>
  </g>
</svg>