<?xml version="1.0" encoding="UTF-8"?>
<svg id="Layer_2" data-name="Layer 2" xmlns="http://www.w3.org/2000/svg" viewBox="0 0 121.92 121.92">
  <defs>
    <style>
      .cls-1 {
        fill:  #ff4800;
        stroke-width: 0px;
      }
    </style>
  </defs>
  <g id="Layer_1-2" data-name="Layer 1">
    <g>
      <path class="cls-1" d="m104.07,104.07c-7.1-7.27-13.88-14.85-20.59-22.52-1.69-1.93-3.34-3.89-4.94-5.9-6.81-8.57-6.81-20.8,0-29.37,1.6-2.01,3.25-3.97,4.94-5.9,6.7-7.67,13.49-15.25,20.59-22.52-7.27,7.1-14.85,13.88-22.52,20.59-1.93,1.69-3.9,3.34-5.91,4.94-8.53,6.78-20.66,6.78-29.26.08-.05-.04-.09-.07-.14-.11-9.83-8.08-19.23-16.69-28.38-25.5,7.1,7.27,13.88,14.85,20.59,22.52,1.69,1.93,3.34,3.89,4.94,5.9,6.81,8.57,6.81,20.8,0,29.37-1.6,2.01-3.25,3.97-4.94,5.9-6.7,7.67-13.49,15.25-20.59,22.52,7.27-7.1,14.85-13.88,22.52-20.59,1.93-1.69,3.9-3.34,5.91-4.94,8.53-6.78,20.66-6.78,29.26-.08.05.04.09.07.14.11,9.83,8.08,19.23,16.69,28.38,25.5Z"/>
      <path class="cls-1" d="m60.96,121.92c.13-10.16.69-20.32,1.37-30.48.17-2.56.39-5.12.68-7.66,1.24-10.88,9.89-19.52,20.77-20.77,2.55-.29,5.1-.51,7.66-.68,10.16-.68,20.32-1.24,30.48-1.37-10.16-.13-20.32-.69-30.48-1.37-2.56-.17-5.12-.39-7.67-.68-10.83-1.24-19.4-9.82-20.75-20.63,0-.06-.01-.12-.02-.18-1.24-12.66-1.79-25.4-2.04-38.1-.13,10.16-.69,20.32-1.37,30.48-.17,2.56-.39,5.12-.68,7.66-1.24,10.88-9.89,19.52-20.77,20.77-2.55.29-5.11.51-7.66.68-10.16.68-20.32,1.24-30.48,1.37,10.16.13,20.32.69,30.48,1.37,2.56.17,5.12.39,7.67.68,10.83,1.24,19.4,9.82,20.75,20.63,0,.06.01.12.02.18,1.24,12.66,1.79,25.4,2.04,38.1Z"/>
    </g>
  </g>
</svg>