<?xml version="1.0" encoding="UTF-8"?>
<svg id="Layer_2" data-name="Layer 2" xmlns="http://www.w3.org/2000/svg" viewBox="0 0 183.69 183.74">
  <defs>
    <style>
      .cls-1 {
        fill: #ff4800;
        stroke-width: 0px;
      }
    </style>
  </defs>
  <g id="Layer_1-2" data-name="Layer 1">
    <g>
      <path class="cls-1" d="m100.92,137.81l-9.72,26.53c-2.28,6.22-11.92,6.22-14.2,0l-30.06-82.08h-13.05s34.49,83.72,34.49,83.72c4.4,10.67,15.61,17.75,28.14,17.75h29.63s16.51-23.49,16.51-23.49h-8.26s-2.5,15.84-20.78,15.84c-4.86,0-8.31-4.34-6.77-8.55l10.89-29.72,36.44-99.5,7.2-19.67C167.62,2.98,176.12,0,183.69,0h0l-15.5.04h-8.41s-8.41,0-8.41,0l-14.02,38.27-36.44,99.5Z"/>
      <path class="cls-1" d="m0,.04h42.05c-5.73,0-25.2.9-18.74,17.71l18.74,51.17h-13.67S0,.04,0,.04Z"/>
    </g>
  </g>
</svg>